<svg width="270" height="120" viewBox="0 0 270 120" fill="none" xmlns="http://www.w3.org/2000/svg">
<rect width="270" height="120" rx="4" fill="#F5F4FA"/>
<path d="M172.316 68.3385L153.847 49.7337L155.897 39.6373C156.426 39.8438 156.988 39.9517 157.556 39.9558H157.57C160.178 39.9866 162.317 37.8974 162.348 35.2893C162.379 32.6812 160.289 30.542 157.681 30.5111C155.073 30.4803 152.934 32.5695 152.903 35.1776C152.897 35.7357 152.989 36.2905 153.176 36.8163L142.326 38.1405L124.628 20.35C124.41 20.1285 124.114 20.0025 123.804 20C123.498 20.0016 123.204 20.1235 122.987 20.3395L119.679 23.6295C119.223 24.0851 119.223 24.8236 119.679 25.2792L121.459 27.0852C114.562 39.7681 116.802 55.4741 126.97 65.7228C127.064 65.8121 127.172 65.8843 127.29 65.9363C127.216 66.3311 127.178 66.7317 127.176 67.1333V80.6667H113.176C109.956 80.6705 107.346 83.28 107.342 86.5V88.8333C107.342 89.4776 107.865 90 108.509 90H162.176C162.82 90 163.342 89.4776 163.342 88.8333V86.5C163.338 83.28 160.729 80.6705 157.509 80.6667H143.509V74.6688C145.702 75.1288 147.937 75.3633 150.178 75.3688C155.555 75.363 160.846 74.0225 165.578 71.4675L167.367 73.2677C167.584 73.4892 167.881 73.6152 168.191 73.6177C168.497 73.6161 168.79 73.4941 169.008 73.2782L172.316 69.9882C172.772 69.5326 172.772 68.7941 172.316 68.3385ZM155.925 33.6348C156.838 32.726 158.316 32.7301 159.224 33.6437C160.133 34.5574 160.129 36.0348 159.215 36.9435C158.778 37.3785 158.186 37.6226 157.569 37.6225H157.562C156.274 37.6158 155.235 36.5658 155.241 35.2771C155.244 34.6602 155.492 34.0699 155.929 33.6348H155.925ZM153.178 41.301L151.869 47.7445L149.298 45.158L153.178 41.301ZM151.853 39.3282L147.653 43.5037L144.404 40.237L151.853 39.3282ZM157.509 83C159.442 83 161.009 84.567 161.009 86.5V87.6667H109.676V86.5C109.676 84.567 111.243 83 113.176 83H157.509ZM141.176 78.3333V80.6667H129.509V78.3333H141.176ZM129.509 76V67.1333C129.509 64.303 132.126 62 135.342 62C138.559 62 141.176 64.303 141.176 67.1333V76H129.509ZM143.509 72.29V67.1333C143.509 63.0162 139.846 59.6667 135.342 59.6667C132.431 59.622 129.708 61.1041 128.165 63.5738C119.289 54.2249 117.29 40.2875 123.181 28.8207L163.872 69.7455C157.589 72.9419 150.386 73.8418 143.509 72.29ZM168.204 70.7943L166.56 69.1412L123.792 26.1157L122.141 24.4613L123.792 22.8163L141.15 40.272C141.158 40.272 141.163 40.2872 141.171 40.293L169.859 69.1493L168.204 70.7943Z" fill="#212121"/>
<path d="M135.353 64.3333H135.342C133.409 64.3304 131.84 65.895 131.837 67.8281C131.834 69.7611 133.399 71.3304 135.332 71.3333H135.342C137.275 71.3362 138.845 69.7716 138.848 67.8386C138.85 65.9055 137.286 64.3362 135.353 64.3333ZM136.169 68.6605C135.95 68.8789 135.652 69.0012 135.342 69C134.698 68.9966 134.178 68.4716 134.182 67.8273C134.183 67.5189 134.307 67.2237 134.526 67.0062C134.743 66.7902 135.036 66.6683 135.342 66.6667C135.987 66.67 136.506 67.195 136.503 67.8393C136.501 68.1477 136.378 68.4429 136.159 68.6605H136.169Z" fill="#2196F3"/>
</svg>
